HIERARCHY
ROOT Pelvis
{
	OFFSET 0.000000 0.000000 0.000000
	CHANNELS 6 Xposition Yposition Zposition Zrotation Yrotation Xrotation 
	JOINT Left_hip
	{
		OFFSET 0.070241 -0.085575 -0.010474
		CHANNELS 3 Zrotation Yrotation Xrotation
		JOINT Left_knee
		{
			OFFSET 0.032125 -0.356873 -0.000555
			CHANNELS 3 Zrotation Yrotation Xrotation
			JOINT Left_ankle
			{
				OFFSET -0.010961 -0.370212 -0.042278
				CHANNELS 3 Zrotation Yrotation Xrotation
				JOINT Left_foot
				{
					OFFSET 0.023322 -0.052281 0.110104
					CHANNELS 3 Zrotation Yrotation Xrotation
					End Site
					{
						OFFSET 0.000000 0.000000 0.000000
					}
				}
			}
		}
	}
	JOINT Right_hip
	{
		OFFSET -0.068518 -0.084320 -0.007402
		CHANNELS 3 Zrotation Yrotation Xrotation
		JOINT Right_knee
		{
			OFFSET -0.037345 -0.364815 -0.003619
			CHANNELS 3 Zrotation Yrotation Xrotation
			JOINT Right_ankle
			{
				OFFSET 0.013394 -0.370006 -0.039954
				CHANNELS 3 Zrotation Yrotation Xrotation
				JOINT Right_foot
				{
					OFFSET -0.019600 -0.045455 0.113223
					CHANNELS 3 Zrotation Yrotation Xrotation
					End Site
					{
						OFFSET 0.000000 0.000000 0.000000
					}
				}
			}
		}
	}
	JOINT Spine1
	{
		OFFSET -0.002404 0.098129 -0.018169
		CHANNELS 3 Zrotation Yrotation Xrotation
		JOINT Spine2
		{
			OFFSET 0.003989 0.127209 -0.001742
			CHANNELS 3 Zrotation Yrotation Xrotation
			JOINT Spine3
			{
				OFFSET 0.001758 0.046641 0.023475
				CHANNELS 3 Zrotation Yrotation Xrotation
				JOINT Neck
				{
					OFFSET -0.003759 0.194901 -0.039982
					CHANNELS 3 Zrotation Yrotation Xrotation
					JOINT Head
					{
						OFFSET 0.003999 0.063756 0.047665
						CHANNELS 3 Zrotation Yrotation Xrotation
						End Site
						{
							OFFSET 0.000000 0.000000 0.000000
						}
					}
				}
				JOINT Left_collar
				{
					OFFSET 0.071816 0.109048 -0.028973
					CHANNELS 3 Zrotation Yrotation Xrotation
					JOINT Left_shoulder
					{
						OFFSET 0.084027 0.032269 -0.006525
						CHANNELS 3 Zrotation Yrotation Xrotation
						JOINT Left_elbow
						{
							OFFSET 0.243854 -0.013992 -0.025905
							CHANNELS 3 Zrotation Yrotation Xrotation
							JOINT Left_wrist
							{
								OFFSET 0.232156 0.008196 -0.000339
								CHANNELS 3 Zrotation Yrotation Xrotation
								JOINT Left_palm
								{
									OFFSET 0.075377 -0.009461 -0.012494
									CHANNELS 3 Zrotation Yrotation Xrotation
									End Site
									{
										OFFSET 0.000000 0.000000 0.000000
									}
								}
							}
						}
					}
				}
				JOINT Right_collar
				{
					OFFSET -0.073768 0.107001 -0.033755
					CHANNELS 3 Zrotation Yrotation Xrotation
					JOINT Right_shoulder
					{
						OFFSET -0.086837 0.032868 -0.009431
						CHANNELS 3 Zrotation Yrotation Xrotation
						JOINT Right_elbow
						{
							OFFSET -0.236446 -0.012544 -0.018747
							CHANNELS 3 Zrotation Yrotation Xrotation
							JOINT Right_wrist
							{
								OFFSET -0.236110 0.006124 -0.004327
								CHANNELS 3 Zrotation Yrotation Xrotation
								JOINT Right_palm
								{
									OFFSET -0.074800 -0.006875 -0.009610
									CHANNELS 3 Zrotation Yrotation Xrotation
									End Site
									{
										OFFSET 0.000000 0.000000 0.000000
									}
								}
							}
						}
					}
				}
			}
		}
	}
}
MOTION
Frames: 8
Frame Time: 0.100000
1.065833 0.211128 -0.871386 10.724879 30.113047 -174.260199 1.282992 2.223028 9.285368 -1.389426 -5.409779 2.609260 -1.112913 9.289559 -4.927929 5.013720 10.747048 -11.015697 2.547673 1.337809 -10.262103 2.697843 -1.282730 34.881020 8.224813 -10.251953 -9.794277 -12.217508 6.696304 -2.566640 -2.125327 -2.557774 8.533889 0.438702 -0.151943 4.119339 -1.235648 -2.377406 1.857264 2.852877 -13.892332 -3.132502 -5.532846 -19.758783 12.844382 -21.150810 3.642872 1.287379 -51.221753 -8.112117 14.734374 172.446398 -69.320667 -135.229610 34.165247 -10.978618 -0.521039 -13.245803 -5.873550 -9.267863 19.759712 6.829217 -4.639550 39.159844 11.927498 11.652933 -125.185796 68.332243 -97.051784 -37.789895 20.830972 13.719719 16.927492 9.630243 -6.827676 
1.048879 0.220018 -0.906013 10.935761 32.511186 -173.045108 0.565772 4.000405 13.832411 -0.705538 -4.638345 -1.918379 -1.149604 8.093816 -6.064097 3.037322 12.385604 -9.112528 3.366886 1.485670 -12.596017 0.179612 -5.930058 13.714018 7.785001 -12.050124 -6.071917 -11.748343 7.429910 1.747427 -2.022938 -3.249618 8.189826 -0.924352 0.651826 4.429391 -1.115060 -2.656209 1.141849 2.626274 -14.782602 -1.409831 -4.628535 -19.779707 11.196620 -21.592463 4.306537 1.799007 -51.687444 -8.235876 15.910294 173.479013 -68.426897 -139.408087 27.394553 -8.294992 -4.814109 -12.818000 -5.431327 -10.324105 18.542414 6.807485 -4.167071 41.873021 11.998062 14.067160 -126.163624 65.280883 -108.731675 -33.758032 9.505936 -8.068757 18.007391 9.224269 -6.972198 
1.023118 0.233653 -0.943659 10.092561 34.508585 -171.650159 -0.462717 5.700768 16.203190 -0.622350 -4.281906 -3.454298 -0.971425 6.961975 -8.056815 2.011015 14.668954 -8.430209 3.191833 2.005577 -14.686487 -0.081589 -8.201630 0.482027 6.985287 -11.855339 -6.063789 -10.697292 7.695676 5.397139 -2.004503 -4.083768 6.245337 -1.984164 1.249183 4.590332 -1.553085 -3.150773 0.466061 2.412084 -16.574859 0.046446 -5.180439 -21.496508 10.287185 -21.723698 6.097940 2.005977 -51.749531 -7.610017 17.147157 175.005808 -66.900598 -144.761235 16.267281 -4.550334 -10.657913 -13.336368 -4.331345 -12.054459 17.051236 5.886795 -4.401581 44.548044 11.884736 17.066384 -130.910832 59.006658 -125.380980 -21.266687 -1.265569 -36.158529 18.770411 8.445671 -7.111433 
0.982140 0.249833 -0.987584 8.830107 32.826379 -172.320888 0.071170 6.408794 19.082048 -0.388510 -5.778264 -0.836719 -0.800272 6.584246 -10.816936 1.295169 14.712640 -8.733683 2.562908 0.510535 -13.837285 -0.080228 -11.475187 1.775181 6.259924 -15.163889 -6.413026 -10.498549 8.104665 5.820503 -1.569937 -4.826308 5.267876 -2.066734 0.679340 4.583162 -1.903296 -3.982637 0.442656 1.766522 -19.779923 0.307856 -6.011375 -23.450717 10.217538 -22.192421 6.756793 2.645296 -50.556192 -7.344847 16.361318 -179.829005 -67.187705 -149.665454 14.845405 -5.036004 -11.394741 -12.434862 -4.024768 -11.196026 16.988669 4.607739 -5.336842 42.375765 10.204915 16.484996 -138.166810 56.005522 -131.450714 -21.110530 -0.564071 -35.433522 17.820610 8.366424 -5.787498 
0.924684 0.256054 -1.040069 10.477841 32.804633 -171.338986 2.515723 6.283339 21.877952 0.744844 -5.302480 2.691726 -2.726524 7.351089 -8.074183 2.261552 13.854951 -10.227876 4.346762 -0.010165 -9.488649 1.176079 -11.807927 0.715796 3.728454 -14.985501 -0.733152 -7.086281 5.881895 6.333542 0.145636 -4.908714 2.139859 -1.212297 0.472615 5.783875 -1.521624 -4.235149 -0.076060 0.981122 -21.936040 2.230968 -6.261376 -22.735900 9.278552 -23.407341 8.380275 3.021111 -51.164210 -5.892933 16.377468 -178.127614 -67.539624 -151.811798 12.560231 -5.791001 -12.958145 -12.516836 -4.180884 -11.751496 17.037919 3.240254 -5.271679 40.442649 9.533352 16.882309 -144.578890 53.433280 -137.008095 -20.056256 0.015090 -37.642801 17.982150 8.026180 -5.180237 
0.865352 0.255044 -1.084089 12.118540 35.507377 -171.258890 4.930140 4.974182 19.937984 -0.105194 -6.230569 15.878420 -8.740137 6.678299 1.348030 5.369515 13.204491 -16.048825 6.149452 -0.535667 -2.930538 3.101179 -8.560768 -0.111529 1.083575 -11.979997 -2.442132 -5.422691 3.236632 5.744114 1.224046 -4.359390 0.303072 -0.833298 -0.121365 6.347314 -1.180067 -4.093114 0.140339 -0.039522 -21.935475 3.539899 -5.742734 -21.174521 8.912137 -21.963181 9.982662 2.792783 -54.245341 -4.173441 16.737875 -179.854361 -67.736436 -150.275543 12.157180 -5.574827 -16.686074 -12.125794 -3.097324 -10.534319 14.923392 2.478458 -5.634954 41.523723 9.955760 17.569224 -150.690197 53.310776 -141.359750 -18.971630 -0.079564 -39.761705 16.890102 6.786874 -3.887224 
0.819787 0.258747 -1.111826 12.819404 39.179812 -173.160592 7.264751 3.702032 10.851604 -4.126945 -5.611620 38.825946 -13.156617 4.542292 11.326277 5.375420 14.077058 -22.937133 6.874940 -2.635612 3.803507 3.797956 -4.259006 -0.178852 -1.903867 -9.534390 -4.532489 -4.033258 1.228488 3.865900 1.947733 -2.666731 2.838712 -1.306208 -1.156824 6.423055 -1.287271 -3.693206 0.521927 -1.048357 -22.147546 3.599632 -3.665799 -19.330987 7.521324 -20.529501 8.252779 2.436319 -54.999493 -4.967401 15.948942 179.230612 -68.341717 -147.890354 15.884832 -5.187937 -16.971019 -12.556035 -2.639619 -8.762691 12.129464 4.038699 -5.651068 41.351640 10.605062 15.857955 -153.571173 53.426499 -140.991854 -23.681771 -0.284141 -34.776889 17.313124 6.743769 -3.228873 
0.782683 0.258420 -1.132981 13.646347 44.961150 -175.348780 8.565174 3.417027 3.188101 -2.447922 -0.672992 49.150744 -7.712634 6.559089 3.351134 3.136574 13.527829 -20.157364 6.819225 -4.344870 10.655939 2.684558 0.752357 -0.586412 -0.063563 -7.068451 -5.299103 -5.175096 -0.812552 1.064713 1.278008 -0.009880 7.107750 -1.054063 -2.430125 5.979566 -0.960543 -2.781830 1.804134 -1.160016 -21.681920 2.738054 -2.630677 -18.009692 6.779718 -20.127534 5.360023 2.334107 -57.255998 -4.944980 13.624191 178.721694 -70.403664 -141.785407 29.640651 -7.321613 -8.944528 -14.128949 -4.867905 -7.786382 11.649568 6.095992 -6.124558 39.831011 13.115352 11.145686 -157.270592 53.205738 -132.000584 -42.546633 10.488277 -7.623902 20.897654 9.920015 -5.825273 
